'{

	TitleName   =Mega Fillmore
	TitleNameJ  =Mega Fillmore
	GameName    =Actraiser
	GameNameJ   =Actraiser
	SystemName  =Genesis
	SystemNameJ =Genesis
	Composer    =Yuzo Koshiro
	ComposerJ   =Yuzo Koshiro
	ReleaseDate =
	Converted   =Brezza
	Notes       =

	ClockCount    =192

}

     No  , "FileName" , [BaseFreq] , Volume ( , [ChipName] , [Option] )
'@ P 000 , "bd.wav" ,       8000 ,    80
'@ P 001 , "sd.wav" ,       8000 ,    80
'@ P 002 , "hh.wav" ,       8000 ,    80
'@ P 003 , "cym.wav" ,      8000 ,    80

'@ P 004 , "bd_hit_g4.wav" ,8000 ,    80
'@ P 005 , "bd_hit_b4.wav" ,8000 ,    80
'@ P 006 , "bd_hit_d5.wav" ,8000 ,    80
'@ P 007 , "sd_hit_g5.wav" ,8000 ,    80

FLETLESS BASS
'@ N 000
   AR DR SR RR SL TL  KS ML DT AM SSGEG
'@ 22 00 00 10 00 026 00 02 03 00 00
'@ 26 00 00 10 00 000 00 04 03 00 00
'@ 26 00 00 10 00 008 00 03 03 00 00
'@ 26 00 00 10 00 000 00 01 03 00 00
   AL FB
'@ 06 06

SLAP BASS
'@ N 001
   AR DR SR RR SL TL  KS ML DT AM SSGEG
'@ 31 18 00 06 02 036 00 12 03 00 00
'@ 31 14 04 06 02 045 00 00 03 00 00
'@ 31 10 04 06 02 018 01 00 03 00 00
'@ 31 10 03 06 02 002 01 00 03 00 00
   AL FB
'@ 00 07

SLAP BASS PICK
'@ N 002
   AR DR SR RR SL TL  KS ML DT AM SSGEG
'@ 31 18 00 06 02 035 00 12 03 00 00
'@ 31 14 04 06 02 045 00 00 03 00 00
'@ 31 10 04 06 02 018 01 00 03 00 00
'@ 31 11 06 06 03 000 01 00 03 00 00
   AL FB
'@ 00 07

ORGAN
'@ N 003
   AR DR SR RR SL TL  KS ML DT AM SSGEG
'@ 31 00 00 09 00 042 00 02 03 00 00
'@ 28 00 00 09 00 000 00 04 03 00 00
'@ 28 00 00 09 00 008 00 03 03 00 00
'@ 28 00 00 09 00 000 00 00 03 00 00
   AL FB
'@ 06 05

HORN
'@ N 004
   AR DR SR RR SL TL  KS ML DT AM SSGEG
'@ 20 00 00 08 00 026 00 02 03 00 00
'@ 22 00 00 08 00 008 00 02 03 00 00
'@ 20 00 00 08 00 028 00 01 03 00 00
'@ 22 00 00 08 00 000 00 01 03 00 00
   AL FB
'@ 04 05

STRINGS
'@ N 005
   AR DR SR RR SL TL  KS ML DT AM SSGEG
'@ 31 00 00 00 00 027 00 02 07 00 00
'@ 31 00 00 00 08 033 00 02 03 00 00
'@ 31 00 00 00 00 032 00 02 07 00 00
'@ 12 16 04 08 04 000 02 02 03 00 00
   AL FB
'@ 02 07

'F1 
'F2 
'F3 
'F4 
'F5 
'S1
'S2
'S3 
'S4 

'F1 T117
'F1 @0 q5 v100 o3 l4
'F1 r16 L
'F1 c<b-a-g f+2>f+2
'F1 l16
'F1 o2 g8gg g8gg g8gg g8gg g2 rg>g<ggg>g<g
'F1 @1 o4 v110
'F1 [ c8cc>@2cr<@1ccr c8c>@2c<@1cc8 <a8aa>@2ar<@1aar a-a-a->@2b-<@1b-b-b-> ]2 <
'F1 
'F1 g8gg>@2g<@1ggr  rrb r>@2b <@1b b r> c8 c c >@2c <@1c c r rr<a-r>@2a-<@1a-a-r>
'F1 d8dd>@2d<@1ddr <rrb-r>@2b-<@1b-b-r> e-8e-e->@2e-<@1e-e-r d8 d d>@2d <@1d d d<
'F1 g8gg>@2g<@1ggr  rrb r>@2b <@1b b r> c8 c c >@2c <@1c c r rr<a-r>@2a-<@1a-a-r>
'F1 d8dd>@2d<@1ddr <rrb-r>@2b-<@1b-b-r> e-8e-e->@2e-<@1e-e-r g8 g g>@2g <@1g g g
'F1 o3 @0 v100
'F1 a-4a-4a-4a-4 f+4f+4f+4f+4 g4g4g4g4 g4g4 gg>g<ggg>g<g
'F1 o4 @1 v110
'F1 c8>@2c<@1cr>@2c8c<@1c8>@2c<@1crc>@2c8 <<@1a-r>@2a-rr<@1a-8.f8>@2fr<@1g8>@2gr
'F1 c8>@2c<@1cr>@2c8c<@1c8>@2c<@1cr>@2c8c <<@1a-r>@2a-rr<@1a-8.f8>@2fr<@1g8>@2gg
'F1 @0 q5 v100 o3 l4

'F2 @3 v98 l16 o6 q3 MQV32,1,11,33
'F2 r16 L
'F2 r<g>ce-d<g>g<g>fc>c<ce-c>c<cd<af+a>d4raf+a>cde-c<
'F2 gda-d>c<dbd>e-<g>d<g>a-<g>g< gde-f<b>cd<gab>cde-f<b>cd
'F2 v96 q4 MQV48,1,11,33
'F2 e-4.cde-8cde-rgrf4.c2 cde-4.cde-8cde-rgrf4.c2
'F2 rrd4.<b>cd8 <b>cdfe-de-4. cde-8cde-gfe-f4 r<fb->d f<b->dff a-gfg8.f8. e-8b-8.a-8.
'F2 g8d4.<b>cd8 <b>cdfe-de-4. cde-8cde-gfe-f4 r<fb->d f<b->dff a-gfg8.f8. g8b8.>c8.
'F2 d8e-8.d8.c8.d8.e-8c8 <a8.f+8.e-8c8.<b8.a8>c2..cgg1
'F2 <g>ce-gfc>c<ce-c>c< cfdbd<g>ce-gfc>c<ce-c >c<cd<b>b<bg>ce-gfc>c<ce-
'F2 c>c<cfdbd<g>ce-gfc>c<c e-c>c<cdfgb
'F2 @3 v98 l16 o6 q3 MQV32,1,11,33 

'F3 @3 q4 v94 MQV36,1,8,24 l16 o6 p1
'F3 r16 L
'F3 [o6 cg>c<g]4 a>ce-c ae->c<a> e-c<ae- ae-c<a
'F3 d4e-4f4f+4 
'F3 > gfd<b gfd<b gab>c de-fd
'F3 [ crc>crr<g4gf e-fge- <a>cfc af>c<a <a->cf a-/<b->dfg ]2 gfe-d <
'F3 [
'F3 fb>d<b>fdfd< a-b>d<b>fdfd <g>ce-ce-ce-c <a->ce-c<a>ce-c 
'F3 <b-fb->d frde- frde- frd8 e-de-f gfga-/ b->cdc< b-a-gf <
'F3 ]2 <gb>df gb>df
'F3 c2^8<a-e-a->ce-8< f+8.e-8.c8<f+2 g2f2 g4b4>d4g4
'F3 [e-4d4f4d4]4
'F3 @3 q4 v94 MQV36,1,8,24 l16 o6

'F4 l16 q4 v94 @4 o4 p2
'F4 r16 L
'F4 ce-gb-r>dr<a-4g4<a4. >af+a>caf+a>c<af+c<bg>c<g>e-<g>d<g>gdfd>c<dbdrrrrr2.<
'F4 g2r8c8 e-8g8>afac>f4<<<a->cfc<gb->d<b->g2r8 c8e-8g8a4rfcfa- fcf<gb->d<b->
'F4 g2>d4<b>dc<b>c2 <a-4a4b-4. b->cdr<b->cdr<b-r>e-8.<b-8.>e-8g8.f8.e-8<f2a-2g2a-4a4b-4.
'F4 b->cdr<b->cdr<b-r>e-8. <b-8.>e-8d8.c8.<b8>a-1 e-8.c8.<a8e-2 d2d2 d4g4b4>d4 
'F4 @3 o4 v90 
'F4 c4c4c4<b4 a-4a-4>c4<b4> c4c4c4<b4 a-4a-4>c4<b4
'F4 l16 q4 v94 @4 o4 

'F5 @5 v93 q1 l16 o5
'F5 r16 L
'F5 r<g>ce-d<g>g<g>fc>c<ce-c>c<cd<af+a>dddddaf+a>cde-c<
'F5 gda-d>c<dbd>e-<g>d<g>a-<g>g< gde-f<b>cd<gab>cde-f<b>cd<
'F5 [ crc>crr<g4gf e-fge- <a>cfc af>c<a <a->cf a-/<b->dfg ]2 gfe-d <
'F5 [
'F5 fb>d<b>fdfd< a-b>d<b>fdfd <g>ce-ce-ce-c <a->ce-c<a>ce-c 
'F5 <b-fb->d frde- frde- frd8 e-de-f gfga-/ b->cdc< b-a-gf <
'F5 ]2 <gb>df gb>df
'F5 >cccccccccc<a-e-a->ce-8 f+f+f+e-e-e-cc<f+f+f+f+f+f+f+f+ggggggggffffffff<
'F5 <g4b4>d4g4>
'F5 <g>ce-gfc>c<ce-c>c< cfdbd<g>ce-gfc>c<ce-c >c<cd<b>b<bg>ce-gfc>c<ce-
'F5 c>c<cfdbd<g>ce-gfc>c<c e-c>c<cdfgb
'F5 @5 v93 q1 l16 o5

'%b @0
'%s @1
'%h @2
'%c @3

'F6 m1 o4 l16 
'F6 r16 L 
'F6 [%b c8 %h cc]8
'F6 %s c %b cc %s c %b cc %s c %b cc %s c %b cc %s c %b c %s cc %b c4r4r %s cccc32c32ccc
'F6 [%b c8 %h cc %s c4 %b c8 %h cc %s c %b c %h c %b c c8 %h cc %s c4 %b c8 %h cc %s c %b ccc]6
'F6 [%b c4c4c8 %h cc %s c4]3 
F6 %b c4c4 c %s cc8c8cc
'F6 @4c4 @5c4 @6c4 @7c4
'F6 [%b c8 %h cc %s c8 %h cc / %b c8 %h cc %s c8 %c c8]4 %b c8 %h cc %s cccc
'F6 m1 o4 l16

     No,SV,AR,DR,SL,SR,RR,ST
'@ E  0,15, 0, 1,10,255, 2, 1
STRINGS
'@ E  1,10, 1, 1,10,255, 4, 1
ORGAN
'@ E  2,15, 1,255,15,255, 1, 2
STRINGS2
'@ E  7,10, 1, 1,10,255, 4, 2
HIT
'@ E  8, 6, 1, 2, 0, 0, 2, 3

'S1 EON 
'S1 @1 v7 l16 o4 
'S1 r16 L
'S1 r<g>ce-d<g>g<g>fc>c<ce-c>c<cd<af+a>dddddaf+a>cde-c<
'S1 gda-d>c<dbd>e-<g>d<g>a-<g>g< gde-f<b>cd<gab>cde-f<b>cd<
'S1 @7
'S1 [ crc>crr<g4gf e-fge- <a>cfc af>c<a <a->cf a-/<b->dfg ]2 gfe-d <
'S1 [
'S1 fb>d<b>fdfd< a-b>d<b>fdfd <g>ce-ce-ce-c <a->ce-c<a>ce-c 
'S1 <b-fb->d frde- frde- frd8 e-de-f gfga-/ b->cdc< b-a-gf <
'S1 ]2 <gb>df gb>df
'S1 @1 >cccccccccc<a-e-a->ce-8 f+f+f+e-e-e-cc<f+f+f+f+f+f+f+f+ggggggggffffffff<
'S1 @8 <g4b4>d4g4>
'S1 @1 <g>ce-gfc>c<ce-c>c< cfdbd<g>ce-gfc>c<ce-c >c<cd<b>b<bg>ce-gfc>c<ce-
'S1 c>c<cfdbd<g>ce-gfc>c<c e-c>c<cdfgb
'S1 @1 v7 l16 o4 

'S2 @1 q4v5 l16 o3
'S2 r16 L
'S2 c4<b-4a-4g4f+4r4>f+4r4 <g8a-8g8a-8g8a-8g8a-8 g4r4 >> (1 ggg8r4 )1
'S2 @2 o4v4
'S2 e-4.cde-8cde-rgrf4.c2 cde-4.cde-8cde-rgrf4.c2
'S2 rrd4.<b>cd8 <b>cdfe-de-4. cde-8cde-gfe-f4 r<fb->d f<b->dff a-gfg8.f8. e-8b-8.a-8.
'S2 g8d4.<b>cd8 <b>cdfe-de-4. cde-8cde-gfe-f4 r<fb->d f<b->dff a-gfg8.f8. g8b8.>c8.
'S2 d8e-8.d8.c8.d8.e-8c8 <a8.f+8.e-8c8.<b8.a8>c2..cgg1
'S2 @1 o3 v4 l16
'S2 c4r4c4c4<a-4r4>f4g4 c4r4c4c4a-4r4<f4g4
'S2 @1 q4v5 l16 o3

; B.D
'@ E 3,15, 0, 1, 0, 0, 1, 1
'%sb v10@3w5
; S.D
'%ss v10@4w4
'@ E 4,15, 0, 1, 8, 2, 8, 1

; H.H
'%sh v10@5w4
'@ E 5,15, 0, 1, 0, 0, 4, 1

; CYM
'%sc v10@6w4
'@ E 6,15, 0, 4,12, 8, 8, 1

'S4 l16 EON !
'S4 r16 L
'S4 [%sb c8 %sh cc]8
'S4 %ss c %sb cc %ss c %sb cc %ss c %sb cc %ss c %sb cc %ss c %sb c %ss cc %sb c4r4r %ss cccc32c32ccc
'S4 [%sb c8 %sh cc %ss c4 %sb c8 %sh cc %ss c %sb c %sh c %sb c c8 %sh cc %ss c4 %sb c8 %sh cc %ss c %sb ccc]6
'S4 [%sb c4c4c8 %sh cc %ss c4]3 %sb c4c4c %s cc8c8cc
'S4 [%sb c8 %sh cc %ss c8 %sh cc / %sb c8 %sh cc %ss c8 %sc c8]4 %sb c8 %sh cc %ss cccc
